# xmcd
#
# Track frame offsets: 
#        150
#        11886
#        24260
#        36527
#        48916
#        60249
#        71903
#        84727
#        97799
#        111286
#        123646
#        135459
#        147736
#        160672
#        172175
#        184313
#        195981
#        208616
#
# Disc length: 2935 seconds
#
# Revision: 0
# Processed by: cddbd v1.4PL0 Copyright (c) Steve Scherf et al.
# Submitted via: ExactAudioCopy v0.95a3
#
DISCID=040b7512
DTITLE=Brownie McGhee - Blues Legends 13 - Brownie McGhee
DYEAR=1900
DGENRE=Blues
TTITLE0=Not Guilty Blues
TTITLE1=Coal Miner Blues
TTITLE2=Back Door Stranger
TTITLE3=Step It Up And Go No. 2
TTITLE4=Got To Find My Little Woman
TTITLE5=Dealing With The Devil
TTITLE6=I´m A Black Woman´s Man
TTITLE7=Woman, I´m Done
TTITLE8=Death Of Blind Boy Fuller
TTITLE9=Picking My Tomatoes
TTITLE10=I´m Callin´ Daisy
TTITLE11=Me And My Dog Blues
TTITLE12=Born For Bad Luck
TTITLE13=Step It Up And Go
TTITLE14=Let Me Tell You ´Bout My Baby
TTITLE15=Prison Woman Blues
TTITLE16=Be Good To Me
TTITLE17=My Barkin´ Bulldog Blues
EXTD=rainbowcd.com 7250/13
EXTT0=
EXTT1=
EXTT2=
EXTT3=
EXTT4=
EXTT5=
EXTT6=
EXTT7=
EXTT8=
EXTT9=
EXTT10=
EXTT11=
EXTT12=
EXTT13=
EXTT14=
EXTT15=
EXTT16=
EXTT17=
PLAYORDER=
